<svg width="543" height="543" viewBox="0 0 543 543" fill="none" xmlns="http://www.w3.org/2000/svg">
<g clip-path="url(#clip0_4802_2535)">
<g opacity="0.55" filter="url(#filter0_f_4802_2535)">
<path d="M305.323 132.789C406.078 233.544 449.133 353.845 401.489 401.489C353.845 449.133 233.544 406.078 132.789 305.323C47.5399 220.074 12.3947 61.4142 3.59614 14.5979C2.35199 7.97778 7.9778 2.35199 14.5979 3.59615C61.4142 12.3947 220.074 47.5399 305.323 132.789Z" fill="url(#paint0_linear_4802_2535)"/>
</g>
<g opacity="0.55" filter="url(#filter1_f_4802_2535)">
<path d="M272.311 115.333C359.007 202.029 394.148 307.451 350.8 350.8C307.451 394.148 202.029 359.007 115.333 272.311C42.6318 199.609 11.8054 58.3956 3.74745 14.6986C2.53167 8.10568 8.10568 2.53167 14.6986 3.74745C58.3956 11.8054 199.609 42.6318 272.311 115.333Z" fill="url(#paint1_linear_4802_2535)"/>
</g>
<g filter="url(#filter2_f_4802_2535)">
<path d="M254.269 67.1597C323.197 136.087 337.188 233.85 285.519 285.519C233.85 337.188 136.087 323.197 67.1597 254.269C7.68546 194.795 1.25795 49.0622 0.613603 10.2067C0.523653 4.7825 4.78248 0.523659 10.2067 0.613604C49.0621 1.25796 194.795 7.68546 254.269 67.1597Z" fill="url(#paint2_linear_4802_2535)"/>
</g>
</g>
<defs>
<filter id="filter0_f_4802_2535" x="-96.5775" y="-96.5775" width="617.483" height="617.483" filterUnits="userSpaceOnUse" color-interpolation-filters="sRGB">
<feFlood flood-opacity="0" result="BackgroundImageFix"/>
<feBlend mode="normal" in="SourceGraphic" in2="BackgroundImageFix" result="shape"/>
<feGaussianBlur stdDeviation="50" result="effect1_foregroundBlur_4802_2535"/>
</filter>
<filter id="filter1_f_4802_2535" x="-96.4202" y="-96.4202" width="565.787" height="565.787" filterUnits="userSpaceOnUse" color-interpolation-filters="sRGB">
<feFlood flood-opacity="0" result="BackgroundImageFix"/>
<feBlend mode="normal" in="SourceGraphic" in2="BackgroundImageFix" result="shape"/>
<feGaussianBlur stdDeviation="50" result="effect1_foregroundBlur_4802_2535"/>
</filter>
<filter id="filter2_f_4802_2535" x="-99.3878" y="-99.3878" width="516.088" height="516.088" filterUnits="userSpaceOnUse" color-interpolation-filters="sRGB">
<feFlood flood-opacity="0" result="BackgroundImageFix"/>
<feBlend mode="normal" in="SourceGraphic" in2="BackgroundImageFix" result="shape"/>
<feGaussianBlur stdDeviation="50" result="effect1_foregroundBlur_4802_2535"/>
</filter>
<linearGradient id="paint0_linear_4802_2535" x1="36.6224" y1="36.6224" x2="401.489" y2="401.489" gradientUnits="userSpaceOnUse">
<stop stop-color="#7908D0"/>
<stop offset="1" stop-color="#7908D0" stop-opacity="0"/>
</linearGradient>
<linearGradient id="paint1_linear_4802_2535" x1="36.8442" y1="36.8442" x2="350.8" y2="350.8" gradientUnits="userSpaceOnUse">
<stop stop-color="#088DD0"/>
<stop offset="1" stop-color="#088DD0" stop-opacity="0"/>
</linearGradient>
<linearGradient id="paint2_linear_4802_2535" x1="35.9102" y1="35.9102" x2="285.519" y2="285.519" gradientUnits="userSpaceOnUse">
<stop stop-color="#FFF75F"/>
<stop offset="1" stop-color="#7908D0" stop-opacity="0"/>
</linearGradient>
<clipPath id="clip0_4802_2535">
<rect width="543" height="543" fill="white"/>
</clipPath>
</defs>
</svg>
